<?xml version="1.0" standalone="no"?>
<!DOCTYPE svg PUBLIC "-//W3C//DTD SVG 20010904//EN"
 "http://www.w3.org/TR/2001/REC-SVG-20010904/DTD/svg10.dtd">
<svg version="1.0" xmlns="http://www.w3.org/2000/svg"
 width="260.000000pt" height="260.000000pt" viewBox="0 0 260.000000 260.000000"
 preserveAspectRatio="xMidYMid meet">
<metadata>
Created by potrace 1.11, written by Peter Selinger 2001-2013
</metadata>
<g transform="translate(0.000000,260.000000) scale(0.100000,-0.100000)"
fill="#000000" stroke="none">
<path d="M1110 2068 c-7 -15 -16 -26 -19 -25 -9 5 -209 -202 -202 -209 3 -4 0
-4 -7 0 -7 5 -11 10 -8 13 3 3 1 13 -3 22 -8 14 -46 16 -353 15 l-343 0 0
-117 c0 -71 4 -117 10 -117 7 0 7 -3 0 -8 -10 -7 -14 -92 -5 -92 8 0 5 -368
-3 -376 -3 -4 -2 -15 3 -25 6 -10 7 -20 3 -22 -5 -3 -9 -66 -11 -141 -3 -113
-1 -137 11 -142 8 -3 158 -6 334 -8 175 -1 324 -5 331 -10 7 -4 12 -2 12 4 0
6 4 9 9 6 5 -4 13 8 16 26 4 18 12 39 19 47 9 12 8 13 -3 6 -10 -6 -12 -4 -5
6 9 15 17 71 18 134 l1 40 -62 0 c-35 0 -63 -2 -63 -5 0 -4 -214 -5 -261 -1
-35 3 -52 27 -55 79 -5 74 1 77 147 75 68 -1 150 -4 182 -6 64 -6 58 -15 60
98 1 28 6 53 12 58 6 4 5 10 -5 17 -8 5 -10 10 -5 10 12 0 14 59 2 77 -4 6
-17 10 -30 7 -12 -3 -92 -7 -178 -10 -176 -6 -181 -5 -185 69 -4 66 9 73 127
71 55 -2 107 -5 115 -8 8 -3 14 0 14 7 0 8 3 8 9 -2 6 -9 10 -10 16 -2 4 7 12
8 18 4 7 -5 35 -10 64 -12 47 -2 52 -1 55 21 2 12 1 42 -3 66 -3 23 -2 42 3
42 5 0 6 6 1 13 -8 13 -13 57 -6 57 10 0 83 -78 83 -88 0 -7 6 -11 13 -9 7 1
11 -6 9 -17 -2 -11 1 -15 7 -11 6 3 11 -1 11 -9 0 -9 5 -16 11 -16 5 0 7 5 3
12 -5 7 -3 8 6 3 10 -6 9 -11 -6 -23 -19 -14 -18 -14 1 -8 11 3 27 1 35 -5 13
-9 12 -10 -2 -5 -10 3 -20 2 -22 -3 -3 -4 0 -8 7 -8 42 -1 81 -39 71 -70 -5
-16 -5 -17 6 -1 10 16 12 16 29 0 11 -11 15 -21 9 -28 -6 -8 -3 -11 9 -10 11
0 18 -5 17 -16 -1 -10 1 -17 5 -16 22 2 41 -3 36 -11 -3 -5 4 -13 16 -16 11
-4 18 -9 15 -12 -6 -6 24 -38 35 -38 4 0 11 -4 16 -9 5 -5 3 -6 -4 -2 -7 4
-13 2 -13 -3 0 -6 8 -11 18 -11 9 0 26 -13 37 -29 10 -16 24 -27 30 -24 5 4 0
-5 -11 -18 -12 -13 -29 -34 -39 -46 -10 -12 -23 -19 -29 -16 -6 3 -8 3 -4 -2
4 -4 -74 -88 -172 -187 -99 -99 -180 -184 -180 -190 0 -6 -3 -9 -6 -5 -7 6
-40 -25 -46 -44 -2 -7 9 -25 25 -40 18 -17 26 -32 22 -40 -6 -8 -4 -10 4 -4
14 8 79 -56 73 -73 -2 -6 2 -14 9 -18 8 -4 9 -3 5 4 -10 17 -2 15 21 -6 25
-21 35 -68 15 -64 -8 1 -11 -2 -8 -7 6 -10 37 -7 56 4 7 4 9 -3 6 -19 -3 -14
-1 -28 4 -31 5 -3 7 4 5 15 -2 12 2 23 10 27 8 3 12 9 9 14 -3 5 2 6 10 3 9
-3 16 -1 16 5 0 6 9 2 20 -9 11 -11 25 -20 32 -20 6 0 8 3 5 7 -4 3 -2 12 4
20 9 10 8 13 -1 13 -7 0 -1 9 13 20 14 11 30 20 37 20 6 0 8 5 5 10 -3 6 -2
10 3 10 6 0 13 -7 16 -16 4 -10 2 -13 -6 -8 -6 4 -8 3 -5 -4 5 -6 -1 -8 -15
-4 -14 3 -19 2 -14 -7 4 -6 12 -9 17 -6 5 4 9 0 9 -7 1 -8 6 -6 15 6 8 10 12
23 9 27 -8 13 10 11 26 -4 11 -9 11 -8 0 7 -14 18 -13 19 2 13 13 -4 16 -2 11
11 -5 14 -3 15 8 4 7 -6 18 -12 23 -12 6 0 3 5 -6 11 -11 6 -15 16 -11 27 4 9
-4 4 -18 -11 -17 -20 -29 -26 -43 -21 -17 7 -17 8 5 20 13 7 27 10 31 8 7 -5
12 10 9 29 -2 11 6 8 23 -9 15 -14 16 -13 16 6 0 12 -4 19 -8 16 -4 -2 -9 5
-9 16 -2 20 -1 20 12 2 7 -11 17 -15 21 -11 5 4 2 12 -6 17 -9 6 -10 10 -3 10
22 0 33 -33 15 -46 -10 -7 -15 -14 -12 -17 3 -2 16 7 30 21 14 13 19 22 13 18
-15 -8 -18 10 -4 19 6 3 15 -3 21 -12 11 -17 11 -17 6 1 -5 14 -2 17 11 12 17
-6 17 -5 1 8 -24 18 -23 29 2 16 11 -6 20 -7 19 -3 -4 16 13 43 24 36 6 -3 7
-1 3 5 -4 6 6 18 23 27 17 8 40 28 52 44 13 18 29 28 39 26 14 -3 17 2 13 18
-4 18 -3 19 6 7 7 -10 11 -11 11 -2 0 18 21 15 46 -9 23 -21 39 -14 23 11 -7
12 -9 12 -9 1 0 -11 -3 -11 -15 -1 -8 7 -12 17 -8 23 4 7 0 8 -13 2 -10 -4
-28 -8 -40 -8 -16 -1 -20 -6 -16 -20 4 -16 2 -18 -14 -9 -10 5 -26 12 -34 16
-8 3 -3 4 12 2 15 -1 25 0 23 4 -3 4 2 13 10 20 14 11 13 14 -1 24 -13 10 -13
12 5 12 11 0 17 -4 15 -8 -3 -4 1 -8 8 -8 9 0 9 -3 -2 -10 -12 -8 -10 -10 8
-10 13 0 20 4 17 10 -9 15 11 12 24 -3 6 -8 7 -18 3 -22 -4 -5 0 -6 9 -2 18 6
54 -29 39 -38 -13 -8 -13 -25 1 -25 5 0 7 5 4 10 -10 15 3 12 25 -7 11 -10 20
-23 20 -30 0 -7 5 -13 11 -13 5 0 7 5 3 12 -4 7 -3 8 5 4 9 -6 9 -11 -1 -24
-8 -9 -8 -13 -1 -9 19 12 42 -3 38 -25 -4 -16 -2 -18 10 -8 10 8 15 9 15 2 0
-6 -5 -14 -10 -17 -13 -8 -3 -25 13 -24 9 0 8 2 -1 6 -6 2 -10 9 -6 14 8 14
24 11 24 -5 0 -8 6 -16 13 -19 8 -3 7 -11 -8 -28 l-19 -24 23 21 23 21 24 -24
c13 -13 24 -30 24 -38 0 -8 5 -15 11 -15 5 0 7 5 3 12 -4 7 -3 8 4 4 6 -4 8
-14 5 -23 -4 -10 -2 -14 4 -10 6 4 24 -6 41 -22 22 -22 27 -32 18 -41 -8 -8
-7 -10 6 -5 13 5 20 1 26 -16 6 -15 11 -18 16 -11 4 7 12 12 18 12 7 0 6 -5
-1 -14 -10 -12 -8 -13 8 -9 12 3 19 8 17 12 -3 4 -1 13 5 21 6 10 9 11 9 3 0
-7 5 -13 11 -13 5 0 7 5 4 10 -3 6 -1 10 4 10 6 0 11 -4 11 -10 0 -5 0 -13 0
-17 0 -4 -6 -8 -14 -9 -8 -1 -22 -7 -33 -13 -14 -8 -15 -10 -2 -11 8 0 21 6
28 13 11 10 12 7 7 -13 -6 -25 -6 -25 5 -2 14 27 25 28 38 5 6 -10 11 -13 11
-6 0 6 -4 14 -9 17 -5 4 -8 14 -7 24 2 9 -3 22 -10 27 -10 7 -11 14 -3 25 9
13 10 13 6 -2 -7 -20 16 -31 32 -15 8 8 11 8 11 -1 0 -7 -4 -12 -8 -12 -4 0
-8 -9 -9 -20 -1 -11 2 -18 8 -15 5 4 9 13 9 21 0 8 5 12 10 9 6 -4 7 -11 4
-17 -4 -7 -2 -8 5 -4 6 4 9 11 6 16 -3 5 -1 11 5 15 5 3 10 14 10 23 -1 13 -5
11 -16 -8 -8 -14 -13 -17 -10 -7 3 11 2 15 -4 12 -6 -3 -10 -2 -10 2 0 5 10
13 23 18 12 6 21 17 19 24 -1 7 2 10 8 6 5 -3 10 -1 10 5 0 7 6 10 13 8 14 -5
19 -48 6 -48 -5 0 -9 -5 -9 -12 0 -14 24 7 26 22 1 6 2 15 3 21 0 5 6 7 13 3
7 -5 8 -3 4 5 -5 7 -10 10 -13 7 -3 -3 -12 2 -20 10 -12 12 -18 12 -32 2 -14
-11 -14 -11 -3 4 12 15 17 15 47 2 30 -12 34 -12 29 1 -4 8 -9 13 -13 11 -4
-3 -13 0 -21 6 -12 8 -12 9 3 4 19 -6 21 2 7 24 -5 8 -10 10 -10 4 0 -7 -8
-15 -17 -18 -15 -6 -15 -5 1 13 10 10 19 27 20 37 2 9 10 18 19 20 10 1 14 -4
12 -17 -2 -10 0 -19 6 -19 5 0 7 12 5 26 -4 19 -1 24 9 20 9 -3 12 0 8 10 -4
11 -9 12 -16 5 -15 -15 -30 -14 -21 1 5 8 2 9 -11 4 -16 -6 -16 -4 -4 11 8 9
9 14 2 10 -15 -9 -45 2 -37 14 3 5 -2 12 -10 15 -9 3 -16 11 -16 16 0 6 11 3
25 -6 25 -16 25 -16 14 2 -12 20 -25 22 -45 9 -15 -9 -24 2 -17 21 4 8 2 13
-3 9 -16 -10 -38 9 -28 24 12 19 14 40 4 34 -11 -7 -61 46 -54 57 3 4 1 8 -4
8 -6 0 -13 -7 -16 -16 -4 -10 -2 -13 6 -8 7 5 8 3 3 -6 -5 -8 -4 -11 3 -6 6 3
16 -2 22 -13 7 -13 7 -22 0 -26 -5 -3 -10 2 -10 11 0 10 -3 15 -6 11 -10 -9
-56 51 -51 65 4 10 6 10 6 1 1 -7 6 -13 12 -13 8 0 9 4 0 13 -6 8 -8 17 -4 20
3 4 1 7 -5 7 -7 0 -12 -5 -12 -11 0 -5 -4 -7 -10 -4 -6 4 -7 -1 -3 -11 5 -15
4 -15 -15 1 -11 10 -18 24 -15 31 3 9 -2 14 -17 14 -19 0 -20 1 -6 16 9 8 16
20 16 27 0 6 -6 2 -14 -8 -14 -19 -15 -19 -35 -1 -12 11 -21 25 -21 32 0 7 -4
16 -10 19 -6 4 -7 -1 -3 -12 3 -10 -5 -4 -18 12 -13 17 -29 34 -37 38 -10 7
-10 12 -1 23 6 8 8 14 4 14 -4 0 0 12 10 26 14 21 14 28 3 42 -11 13 -11 14 1
7 11 -6 13 -4 8 9 -5 13 -3 15 12 7 10 -6 22 -7 26 -3 5 4 5 1 1 -6 -4 -7 -12
-9 -18 -6 -7 5 -8 2 -3 -6 6 -9 4 -11 -5 -5 -9 5 -11 4 -6 -4 4 -6 12 -8 18
-5 6 4 8 -2 4 -17 l-7 -24 14 23 c7 12 17 19 22 15 5 -4 3 1 -5 11 -14 18 -13
19 2 13 10 -3 20 -1 24 5 4 6 3 8 -4 4 -6 -3 -17 0 -25 8 -8 8 -17 12 -21 9
-3 -4 -6 -1 -6 5 0 15 17 16 25 1 4 -6 13 -8 21 -5 7 3 18 -3 24 -12 10 -15
11 -15 6 0 -5 16 39 55 57 50 4 -1 7 3 7 8 0 15 -11 12 -32 -7 -10 -9 -21 -14
-24 -11 -8 9 39 49 52 44 7 -3 10 3 7 15 -3 11 0 19 6 19 7 0 9 -5 5 -11 -5
-8 -1 -8 14 0 12 6 24 16 27 21 4 6 11 8 16 5 5 -4 9 -1 9 4 0 16 -16 13 -30
-4 -7 -8 -17 -15 -23 -15 -6 0 0 11 13 25 13 14 30 23 37 21 7 -3 15 0 19 6 5
7 2 8 -6 3 -8 -5 -11 -3 -8 6 3 8 -2 23 -11 33 -11 14 -12 17 -2 11 10 -6 13
-4 9 7 -4 10 0 14 15 13 27 -2 56 33 37 45 -8 5 -7 9 5 13 9 4 13 3 10 -3 -3
-6 -2 -10 2 -10 13 0 34 40 28 50 -4 6 -1 10 4 10 6 0 11 -4 11 -8 0 -5 7 -9
15 -9 8 0 15 6 15 14 0 7 -5 12 -11 10 -6 -1 -13 4 -15 11 -1 7 0 8 3 2 8 -16
23 -1 17 18 -4 10 -2 13 3 7 4 -6 15 -10 23 -10 8 0 18 -4 23 -10 4 -5 6 -1 4
10 -1 11 -7 20 -12 20 -6 0 -9 -4 -7 -9 2 -5 -4 -4 -12 3 -9 7 -14 23 -12 35
3 11 5 24 5 29 1 4 10 2 20 -5 11 -7 18 -15 15 -19 -2 -4 0 -10 5 -13 5 -4 8
1 7 9 -3 21 -43 48 -59 39 -6 -4 -9 -4 -5 1 7 8 -15 35 -29 35 -15 0 -31 36
-28 63 2 15 -1 25 -6 21 -14 -8 -40 16 -32 30 3 6 2 8 -2 3 -5 -4 -17 0 -27
10 -10 9 -18 13 -18 10 0 -3 10 -15 22 -27 16 -15 18 -20 7 -20 -9 0 -22 11
-29 25 -7 14 -18 25 -23 25 -5 0 -19 10 -31 23 -12 13 -28 21 -35 19 -18 -6
-71 -62 -71 -75 0 -6 -3 -8 -6 -4 -3 3 -19 -7 -34 -23 -15 -16 -31 -26 -35
-22 -4 4 -5 2 -3 -5 4 -15 -324 -339 -353 -346 -16 -4 -19 -3 -10 6 6 6 11 16
11 21 0 6 -5 5 -12 -2 -23 -23 -31 -12 -9 12 17 19 20 26 9 32 -7 4 -10 4 -6
-1 4 -4 1 -14 -7 -21 -19 -20 -27 -17 -20 6 4 12 2 20 -5 20 -7 0 -10 8 -8 18
3 11 0 19 -7 19 -17 0 -13 -29 5 -44 21 -18 -1 -15 -24 2 -14 11 -16 15 -5 15
12 0 12 2 -1 9 -8 6 -18 7 -24 4 -5 -3 -6 -1 -2 5 3 5 1 12 -6 14 -14 5 -20
38 -7 38 5 0 9 4 9 9 0 8 -8 8 -39 2 -2 -1 2 -8 9 -16 8 -9 8 -15 2 -15 -6 0
-14 9 -17 20 -3 11 -13 20 -21 20 -8 0 -12 5 -9 10 5 8 11 7 21 -1 10 -8 14
-8 14 0 0 6 -5 11 -11 11 -5 0 -7 5 -3 12 4 6 3 8 -4 4 -5 -3 -12 -3 -15 1 -2
5 -2 2 0 -5 1 -8 -2 -12 -9 -10 -14 5 -20 38 -7 38 5 0 9 4 9 9 0 8 -8 8 -39
2 -2 -1 2 -8 9 -16 8 -9 8 -15 2 -15 -6 0 -14 9 -17 20 -3 11 -13 20 -21 20
-8 0 -12 5 -9 10 5 8 11 8 20 0 9 -8 15 -8 20 0 4 6 3 10 -2 9 -20 -3 -25 2
-13 16 11 13 10 14 -4 9 -9 -3 -16 -10 -16 -15 0 -5 -5 -9 -11 -9 -6 0 -8 9
-3 22 6 19 4 21 -7 11 -11 -9 -19 -8 -34 4 -20 15 -20 15 3 8 12 -3 22 -2 22
3 0 5 -7 9 -15 10 -8 1 -22 3 -30 4 -8 1 -11 6 -7 12 12 20 10 35 -5 29 -12
-5 -12 -7 -1 -14 7 -5 9 -9 3 -9 -15 0 -66 46 -58 54 3 3 -1 6 -10 6 -8 0 -24
11 -35 25 -11 14 -25 25 -30 25 -6 0 -12 8 -15 18 -3 14 -6 12 -17 -10z m1182
-127 c-4 -12 -7 -11 -13 5 -4 10 -8 15 -8 11 -1 -5 -6 -5 -11 -2 -6 4 -8 10
-5 15 9 15 44 -12 37 -29z m15 -233 c-3 -8 -6 -5 -6 6 -1 11 2 17 5 13 3 -3 4
-12 1 -19z m-41 -50 c4 -7 3 -8 -4 -4 -7 4 -12 2 -12 -4 0 -6 -5 -8 -11 -4 -8
4 -7 9 2 15 18 11 17 11 25 -3z m-49 -76 c9 -6 -5 -25 -47 -64 -36 -35 -62
-53 -66 -46 -4 6 -3 8 3 5 6 -4 14 1 17 10 4 9 2 20 -4 23 -8 5 -6 9 5 13 9 4
13 3 10 -3 -3 -6 -1 -10 4 -10 6 0 11 5 11 11 0 5 3 8 8 6 4 -3 13 1 20 9 12
13 8 18 -10 15 -5 0 -8 4 -8 9 0 13 17 13 25 0 7 -12 25 -4 25 11 0 6 -4 7
-10 4 -5 -3 -10 -1 -10 4 0 13 10 14 27 3z m-70 -34 c-3 -8 -6 -5 -6 6 -1 11
2 17 5 13 3 -3 4 -12 1 -19z m-40 -53 c4 -4 2 -5 -4 -1 -7 4 -13 3 -13 -3 0
-5 -3 -17 -7 -27 -5 -12 -3 -15 6 -9 11 6 11 3 0 -16 -7 -13 -11 -26 -10 -28
5 -12 -27 -7 -45 7 -16 12 -16 14 -2 9 13 -5 22 2 34 24 8 17 13 37 10 44 -5
14 18 14 31 0z m-153 -171 c3 -8 2 -12 -4 -9 -6 3 -10 10 -10 16 0 14 7 11 14
-7z m-10 -44 c-6 -6 -10 -3 -10 10 0 13 4 16 10 10 7 -7 7 -13 0 -20z m-329
-291 c-4 -5 -12 -9 -18 -8 -9 0 -8 2 1 6 6 2 9 10 6 15 -4 7 -2 8 5 4 6 -4 9
-12 6 -17z m640 1 c3 -5 -1 -10 -9 -10 -9 0 -16 5 -16 10 0 6 4 10 9 10 6 0
13 -4 16 -10z m-662 -44 c9 1 17 -2 17 -7 0 -5 -5 -9 -12 -9 -6 0 -9 -3 -5 -6
6 -7 -22 -40 -32 -37 -3 0 -23 -16 -44 -38 -21 -21 -44 -38 -50 -36 -7 1 -11
-6 -10 -16 0 -10 -2 -16 -5 -13 -3 3 -11 1 -19 -5 -9 -9 -13 -8 -13 0 0 6 5
11 11 11 5 0 7 5 4 10 -3 6 -2 10 3 10 6 0 8 10 6 23 -3 14 -2 17 3 7 17 -32
40 -17 34 23 0 4 4 7 9 7 5 0 10 -5 10 -12 0 -15 15 0 15 15 0 7 -6 17 -14 23
-11 9 -12 12 -1 19 9 6 11 4 5 -5 -5 -9 -2 -10 14 -5 13 4 21 2 21 -5 0 -7 6
-8 19 -1 21 12 36 42 19 38 -6 -1 -13 5 -15 13 -3 10 -2 11 4 4 4 -6 16 -10
26 -8z m-48 -6 c-3 -5 -12 -10 -18 -10 -7 0 -6 4 3 10 19 12 23 12 15 0z m25
-20 c0 -5 -4 -10 -10 -10 -5 0 -10 5 -10 10 0 6 5 10 10 10 6 0 10 -4 10 -10z
m-145 -100 c-3 -5 -12 -10 -18 -10 -7 0 -6 4 3 10 19 12 23 12 15 0z m-15 -26
c0 -2 -7 -4 -15 -4 -8 0 -15 4 -15 10 0 5 7 7 15 4 8 -4 15 -8 15 -10z m-56
-33 c3 -5 -1 -11 -9 -14 -9 -4 -12 -1 -8 9 6 16 10 17 17 5z m-97 -82 c-9 -6
-15 -14 -12 -18 2 -5 -3 -15 -13 -22 -15 -13 -16 -12 -3 4 7 9 10 17 6 17 -4
0 -2 7 5 15 7 8 18 15 24 15 6 0 3 -5 -7 -11z m-50 -71 c1 -10 0 -18 -2 -18
-2 0 -9 8 -14 18 -7 14 -6 19 3 19 6 0 13 -9 13 -19z m-114 -3 c4 -8 3 -16 -1
-19 -4 -3 -9 4 -9 15 -2 23 3 25 10 4z"/>
<path d="M2063 1432 c-8 -14 -8 -19 1 -19 7 0 13 9 13 19 1 10 1 18 0 18 -1 0
-7 -8 -14 -18z"/>
<path d="M1523 885 c0 -8 4 -12 9 -9 5 3 6 10 3 15 -9 13 -12 11 -12 -6z"/>
<path d="M2256 2033 c-6 -14 -5 -15 5 -6 7 7 10 15 7 18 -3 3 -9 -2 -12 -12z"/>
<path d="M1190 2030 c0 -5 5 -10 11 -10 5 0 7 5 4 10 -3 6 -8 10 -11 10 -2 0
-4 -4 -4 -10z"/>
<path d="M1227 2010 c7 -27 29 -44 38 -30 4 6 1 9 -7 8 -7 -2 -12 5 -12 14 1
9 -4 19 -11 22 -8 3 -11 -2 -8 -14z"/>
<path d="M1308 1943 c7 -3 16 -2 19 1 4 3 -2 6 -13 5 -11 0 -14 -3 -6 -6z"/>
<path d="M2316 1931 c-4 -5 7 -19 23 -30 25 -18 30 -19 35 -5 3 8 2 13 -3 9
-13 -7 -42 5 -36 15 3 5 1 11 -4 14 -5 4 -12 2 -15 -3z"/>
<path d="M2388 1873 c7 -3 16 -2 19 1 4 3 -2 6 -13 5 -11 0 -14 -3 -6 -6z"/>
<path d="M2383 1809 c-2 -23 3 -25 10 -4 4 8 3 16 -1 19 -4 3 -9 -4 -9 -15z"/>
<path d="M2455 1780 c-3 -5 -1 -10 4 -10 6 0 11 5 11 10 0 6 -2 10 -4 10 -3 0
-8 -4 -11 -10z"/>
<path d="M1530 1760 c0 -5 5 -10 11 -10 5 0 7 5 4 10 -3 6 -8 10 -11 10 -2 0
-4 -4 -4 -10z"/>
<path d="M2374 1748 c-4 -7 -3 -8 4 -4 15 9 15 1 1 -25 -5 -11 -14 -17 -20
-14 -5 4 -9 1 -9 -4 0 -6 -4 -10 -8 -8 -5 1 -21 -12 -35 -29 l-27 -31 28 0
c15 0 21 2 15 4 -7 3 -13 9 -13 14 0 6 4 8 9 4 5 -3 13 -1 16 5 4 6 16 8 28 4
22 -6 22 -6 2 10 -17 13 -18 15 -3 16 9 0 19 9 23 19 3 11 13 21 21 23 11 2
10 6 -5 15 -15 9 -22 10 -27 1z m-43 -81 c-10 -9 -11 -8 -5 6 3 10 9 15 12 12
3 -3 0 -11 -7 -18z"/>
<path d="M1510 1731 c0 -5 7 -15 17 -22 15 -13 15 -12 4 9 -12 23 -21 28 -21
13z"/>
<path d="M956 1702 c-2 -4 -1 -14 4 -22 7 -11 9 -9 7 8 -1 24 -3 26 -11 14z"/>
<path d="M2345 1640 c3 -5 8 -10 11 -10 2 0 4 5 4 10 0 6 -5 10 -11 10 -5 0
-7 -4 -4 -10z"/>
<path d="M2238 1603 c-8 -10 -7 -13 5 -13 8 0 21 -2 29 -3 7 -2 10 -2 6 0 -14
8 -8 25 7 20 8 -4 17 -3 19 2 9 13 -54 8 -66 -6z"/>
<path d="M1050 1599 c0 -5 5 -7 10 -4 6 3 10 8 10 11 0 2 -4 4 -10 4 -5 0 -10
-5 -10 -11z"/>
<path d="M1076 1592 c-2 -4 4 -8 14 -8 10 0 16 4 14 8 -3 4 -9 8 -14 8 -5 0
-11 -4 -14 -8z"/>
<path d="M2256 1567 c3 -10 9 -15 12 -12 3 3 0 11 -7 18 -10 9 -11 8 -5 -6z"/>
<path d="M1130 1550 c0 -5 5 -10 11 -10 5 0 7 5 4 10 -3 6 -8 10 -11 10 -2 0
-4 -4 -4 -10z"/>
<path d="M1140 1500 c8 -5 20 -10 25 -10 6 0 3 5 -5 10 -8 5 -19 10 -25 10 -5
0 -3 -5 5 -10z"/>
<path d="M1214 1439 c0 -13 3 -15 13 -7 7 6 13 12 13 13 0 2 -6 5 -13 8 -7 3
-13 -3 -13 -14z"/>
<path d="M2107 1379 c7 -7 15 -10 18 -7 3 3 -2 9 -12 12 -14 6 -15 5 -6 -5z"/>
<path d="M1328 1353 c6 -2 9 -10 6 -15 -4 -7 -2 -8 5 -4 13 9 5 26 -12 25 -9
0 -8 -2 1 -6z"/>
<path d="M1985 1320 c-3 -5 -1 -10 4 -10 6 0 11 5 11 10 0 6 -2 10 -4 10 -3 0
-8 -4 -11 -10z"/>
<path d="M2035 1319 c-4 -6 -5 -12 -2 -15 2 -3 7 2 10 11 7 17 1 20 -8 4z"/>
<path d="M1975 1291 c3 -2 -1 -11 -8 -19 -7 -9 -7 -13 -1 -9 6 3 16 -5 23 -19
9 -21 14 -24 25 -15 10 8 16 9 19 1 3 -6 4 -5 3 2 -2 7 -9 12 -15 11 -6 -2
-11 2 -11 8 0 5 -5 7 -11 4 -6 -4 -9 0 -7 11 2 11 10 22 18 26 9 4 5 6 -12 5
-15 -1 -25 -3 -23 -6z"/>
<path d="M2050 1182 c6 -13 14 -21 18 -18 3 4 -2 14 -12 24 -18 16 -18 16 -6
-6z"/>
<path d="M2110 1156 c0 -8 4 -17 9 -20 5 -4 7 3 4 14 -6 23 -13 26 -13 6z"/>
<path d="M2115 1110 c-3 -6 1 -7 9 -4 18 7 21 14 7 14 -6 0 -13 -4 -16 -10z"/>
<path d="M2270 960 c0 -6 5 -8 11 -4 6 3 16 0 21 -7 8 -12 9 -11 5 1 -4 18
-37 27 -37 10z"/>
<path d="M1676 942 c-2 -4 4 -8 14 -8 10 0 16 4 14 8 -3 4 -9 8 -14 8 -5 0
-11 -4 -14 -8z"/>
<path d="M1777 889 c7 -7 15 -10 18 -7 3 3 -2 9 -12 12 -14 6 -15 5 -6 -5z"/>
<path d="M2393 875 c0 -8 4 -12 9 -9 5 3 6 10 3 15 -9 13 -12 11 -12 -6z"/>
<path d="M1780 860 c8 -5 20 -10 25 -10 6 0 3 5 -5 10 -8 5 -19 10 -25 10 -5
0 -3 -5 5 -10z"/>
<path d="M1813 825 c0 -8 4 -12 9 -9 5 3 6 10 3 15 -9 13 -12 11 -12 -6z"/>
<path d="M1547 819 c7 -7 15 -10 18 -7 3 3 -2 9 -12 12 -14 6 -15 5 -6 -5z"/>
<path d="M2374 787 c2 -12 11 -35 21 -50 20 -31 31 -36 16 -8 -6 10 -7 22 -3
25 4 4 -1 12 -11 17 -9 6 -15 14 -12 19 3 5 1 11 -4 14 -5 4 -8 -4 -7 -17z"/>
<path d="M2428 773 c7 -3 16 -2 19 1 4 3 -2 6 -13 5 -11 0 -14 -3 -6 -6z"/>
<path d="M2430 750 c-9 -6 -10 -10 -3 -10 6 0 15 5 18 10 8 12 4 12 -15 0z"/>
<path d="M1946 737 c3 -10 9 -15 12 -12 3 3 0 11 -7 18 -10 9 -11 8 -5 -6z"/>
<path d="M954 720 c0 -13 4 -16 10 -10 7 7 7 13 0 20 -6 6 -10 3 -10 -10z"/>
<path d="M1930 721 c0 -6 4 -13 10 -16 6 -3 7 1 4 9 -7 18 -14 21 -14 7z"/>
<path d="M970 696 c0 -2 7 -9 15 -16 9 -7 15 -8 15 -2 0 5 -7 12 -15 16 -8 3
-15 4 -15 2z"/>
<path d="M1320 690 c-9 -6 -10 -10 -3 -10 6 0 15 5 18 10 8 12 4 12 -15 0z"/>
<path d="M1388 693 c7 -3 16 -2 19 1 4 3 -2 6 -13 5 -11 0 -14 -3 -6 -6z"/>
<path d="M2326 671 c-13 -14 -14 -21 -5 -27 8 -4 10 -3 5 4 -4 7 -3 12 2 12 6
0 12 7 16 15 7 20 3 19 -18 -4z"/>
<path d="M1986 662 c-3 -5 1 -9 9 -9 8 0 12 4 9 9 -3 4 -7 8 -9 8 -2 0 -6 -4
-9 -8z"/>
<path d="M2020 660 c0 -5 5 -10 11 -10 5 0 7 5 4 10 -3 6 -8 10 -11 10 -2 0
-4 -4 -4 -10z"/>
<path d="M1030 630 c0 -6 -5 -8 -12 -4 -7 4 -8 3 -4 -5 6 -9 11 -9 21 -1 9 8
15 8 18 0 3 -6 4 -5 3 2 -3 15 -26 23 -26 8z"/>
<path d="M2040 636 c0 -2 7 -7 16 -10 8 -3 12 -2 9 4 -6 10 -25 14 -25 6z"/>
<path d="M1249 627 c-3 -14 -7 -27 -9 -29 -6 -9 -5 -48 2 -48 4 0 8 7 8 16 0
9 5 12 13 8 9 -6 9 -5 0 8 -7 8 -10 18 -6 21 3 4 12 -1 19 -11 7 -9 14 -12 14
-6 0 12 -39 51 -41 41z"/>
<path d="M1311 607 c-13 -21 -12 -21 5 -5 10 10 16 20 13 22 -3 3 -11 -5 -18
-17z"/>
<path d="M2016 622 c-3 -4 4 -9 15 -9 23 -2 25 3 4 10 -8 4 -16 3 -19 -1z"/>
<path d="M2316 615 c-9 -26 -7 -32 5 -12 6 10 9 21 6 23 -2 3 -7 -2 -11 -11z"/>
<path d="M1154 575 c-24 -17 -9 -33 16 -17 22 13 27 3 8 -16 -8 -8 -8 -12 -1
-12 6 0 14 7 17 16 3 8 10 12 16 9 21 -13 9 4 -14 18 -20 14 -26 14 -42 2z
m21 -5 c-3 -5 -12 -10 -18 -10 -7 0 -6 4 3 10 19 12 23 12 15 0z"/>
<path d="M2265 560 c-3 -6 1 -7 9 -4 18 7 21 14 7 14 -6 0 -13 -4 -16 -10z"/>
<path d="M2110 540 c0 -5 7 -7 15 -4 8 4 15 8 15 10 0 2 -7 4 -15 4 -8 0 -15
-4 -15 -10z"/>
<path d="M2215 539 c-4 -6 -5 -12 -2 -15 2 -3 7 2 10 11 7 17 1 20 -8 4z"/>
</g>
</svg>
